<svg width="495" height="250" viewBox="0 0 495 250" fill="none" xmlns="http://www.w3.org/2000/svg">
<rect x="147" width="25" height="250" fill="#FF3434"/>
<rect x="159" y="127" width="25" height="68" transform="rotate(-90 159 127)" fill="#FF3434"/>
<rect x="159" y="25" width="25" height="89" transform="rotate(-90 159 25)" fill="#FF3434"/>
<path fill-rule="evenodd" clip-rule="evenodd" d="M247 250C316.036 250 372 194.036 372 125C372 55.9644 316.036 0 247 0V25C302.228 25 347 69.7715 347 125C347 180.228 302.228 225 247 225V250Z" fill="#FF3434"/>
<rect x="370.744" y="249.244" width="25" height="175" transform="rotate(-135 370.744 249.244)" fill="#FF3434"/>
<rect x="494.487" y="125.5" width="25" height="175" transform="rotate(135 494.487 125.5)" fill="#FF3434"/>
<rect x="123.744" y="2" width="25" height="175" transform="rotate(45 123.744 2)" fill="#FF3434"/>
<rect y="125.744" width="25" height="175" transform="rotate(-45 0 125.744)" fill="#FF3434"/>
</svg>
