<svg width="1204" height="468" viewBox="0 0 1204 468" fill="none" xmlns="http://www.w3.org/2000/svg">
<g clip-path="url(#clip0_75_3)">
<mask id="mask0_75_3" style="mask-type:luminance" maskUnits="userSpaceOnUse" x="0" y="0" width="1204" height="468">
<path d="M1204 0H0V468H1204V0Z" fill="white"/>
</mask>
<g mask="url(#mask0_75_3)">
<path d="M851.279 401.536H887.242V437.363H851.279V401.536Z" stroke="#C50B0B"/>
<path d="M986.266 328.443C986.266 339.434 990.649 349.976 998.45 357.748C1006.25 365.52 1016.83 369.886 1027.87 369.886C1038.9 369.886 1049.48 365.52 1057.28 357.748C1065.08 349.976 1069.47 339.434 1069.47 328.443C1069.47 317.452 1065.08 306.91 1057.28 299.138C1049.48 291.366 1038.9 287 1027.87 287C1016.83 287 1006.25 291.366 998.45 299.138C990.649 306.91 986.266 317.452 986.266 328.443Z" fill="#9A1C1C"/>
<path d="M1147.91 421.284H1176.49V436.159H1147.91V421.284Z" fill="#C50B0B"/>
<path d="M224.084 429.114C229.734 431.542 235.808 432.837 241.96 432.926C248.113 433.015 254.222 431.896 259.94 429.632C265.659 427.369 270.873 424.006 275.287 419.735C279.7 415.464 283.226 410.369 285.663 404.741C288.099 399.112 289.4 393.061 289.489 386.932C289.578 380.803 288.455 374.716 286.183 369.02C283.911 363.323 280.535 358.128 276.248 353.732C271.961 349.335 266.846 345.823 261.196 343.395L224.084 429.114Z" stroke="#C50B0B"/>
<path d="M1019.59 86.2624C1017.27 87.6617 1015.24 89.5034 1013.63 91.6823C1012.02 93.8613 1010.86 96.3348 1010.21 98.9617C1009.56 101.589 1009.44 104.317 1009.84 106.992C1010.25 109.667 1011.18 112.236 1012.59 114.551C1013.99 116.867 1015.84 118.884 1018.03 120.488C1020.22 122.092 1022.7 123.251 1025.34 123.899C1027.97 124.547 1030.71 124.672 1033.4 124.265C1036.08 123.858 1038.66 122.929 1040.99 121.53L1019.59 86.2624Z" stroke="#C50B0B"/>
<path d="M155.295 199.41C152.682 194.566 148.244 190.954 142.958 189.37C137.672 187.785 131.971 188.357 127.108 190.961C122.246 193.564 118.621 197.985 117.03 203.251C115.44 208.517 116.014 214.197 118.627 219.041L155.295 199.41Z" fill="#A70F0F"/>
<path d="M450.248 326.305C448.652 323.557 446.528 321.149 443.998 319.218C441.467 317.288 438.58 315.873 435.501 315.054C432.421 314.236 429.21 314.029 426.051 314.447C422.892 314.864 419.846 315.898 417.087 317.488C411.516 320.699 407.454 325.984 405.794 332.18C404.134 338.375 405.013 344.974 408.237 350.524L450.248 326.305Z" fill="#A70F0F"/>
<path d="M648.881 433.226C648.881 434.765 649.185 436.288 649.776 437.71C650.367 439.131 651.233 440.423 652.325 441.511C653.417 442.599 654.714 443.462 656.141 444.051C657.568 444.64 659.097 444.943 660.642 444.943C662.186 444.943 663.716 444.64 665.143 444.051C666.57 443.462 667.866 442.599 668.958 441.511C670.05 440.423 670.917 439.131 671.508 437.71C672.099 436.288 672.403 434.765 672.403 433.226C672.403 431.687 672.099 430.164 671.508 428.742C670.917 427.321 670.05 426.029 668.958 424.941C667.866 423.853 666.57 422.99 665.143 422.401C663.716 421.812 662.186 421.509 660.642 421.509C659.097 421.509 657.568 421.812 656.141 422.401C654.714 422.99 653.417 423.853 652.325 424.941C651.233 426.029 650.367 427.321 649.776 428.742C649.185 430.164 648.881 431.687 648.881 433.226Z" fill="#C50B0B"/>
<path d="M394.806 272.301C394.806 282.971 399.061 293.204 406.635 300.749C414.208 308.293 424.48 312.532 435.19 312.532C445.901 312.532 456.173 308.293 463.746 300.749C471.32 293.204 475.574 282.971 475.574 272.301C475.574 261.631 471.32 251.398 463.746 243.853C456.173 236.308 445.901 232.07 435.19 232.07C424.48 232.07 414.208 236.308 406.635 243.853C399.061 251.398 394.806 261.631 394.806 272.301Z" stroke="#A70F0F"/>
<path d="M1091.2 254.308C1091.2 265.8 1095.78 276.822 1103.94 284.948C1112.1 293.074 1123.16 297.64 1134.7 297.64C1146.23 297.64 1157.3 293.074 1165.45 284.948C1173.61 276.822 1178.19 265.8 1178.19 254.308C1178.19 242.816 1173.61 231.794 1165.45 223.668C1157.3 215.541 1146.23 210.976 1134.7 210.976C1123.16 210.976 1112.1 215.541 1103.94 223.668C1095.78 231.794 1091.2 242.816 1091.2 254.308Z" stroke="#C50B0B"/>
<path d="M747.567 189.607C747.517 189.621 747.47 189.645 747.43 189.677C747.389 189.71 747.355 189.75 747.329 189.795C747.304 189.84 747.288 189.89 747.282 189.942C747.276 189.994 747.28 190.046 747.295 190.096C747.309 190.146 747.333 190.192 747.366 190.233C747.398 190.274 747.438 190.308 747.483 190.333C747.529 190.358 747.579 190.374 747.631 190.38C747.683 190.386 747.735 190.382 747.785 190.367L747.567 189.607Z" stroke="#A70F0F"/>
<path d="M995.66 267.069C995.66 267.729 995.791 268.382 996.044 268.991C996.298 269.601 996.669 270.154 997.137 270.621C997.605 271.087 998.161 271.457 998.773 271.71C999.384 271.962 1000.04 272.092 1000.7 272.092C1001.36 272.092 1002.02 271.962 1002.63 271.71C1003.24 271.457 1003.8 271.087 1004.27 270.621C1004.74 270.154 1005.11 269.601 1005.36 268.991C1005.61 268.382 1005.74 267.729 1005.74 267.069C1005.74 266.41 1005.61 265.757 1005.36 265.147C1005.11 264.538 1004.74 263.984 1004.27 263.518C1003.8 263.051 1003.24 262.681 1002.63 262.429C1002.02 262.176 1001.36 262.047 1000.7 262.047C1000.04 262.047 999.384 262.176 998.773 262.429C998.161 262.681 997.605 263.051 997.137 263.518C996.669 263.984 996.298 264.538 996.044 265.147C995.791 265.757 995.66 266.41 995.66 267.069Z" fill="#9A1C1C"/>
<path d="M219.385 465.471C219.923 464.973 220.354 464.374 220.655 463.708C220.956 463.042 221.12 462.322 221.137 461.592C221.154 460.861 221.023 460.135 220.754 459.456C220.484 458.776 220.08 458.158 219.567 457.637C219.053 457.115 218.44 456.702 217.763 456.421C217.086 456.14 216.359 455.997 215.626 456C214.893 456.003 214.168 456.153 213.493 456.441C212.819 456.728 212.21 457.147 211.701 457.673L219.385 465.471Z" fill="#C50B0B"/>
<path d="M843.794 439.495C843.794 445.195 846.067 450.663 850.114 454.694C854.16 458.725 859.648 460.989 865.37 460.989C871.093 460.989 876.581 458.725 880.627 454.694C884.673 450.663 886.946 445.195 886.946 439.495C886.946 433.794 884.673 428.327 880.627 424.296C876.581 420.265 871.093 418 865.37 418C859.648 418 854.16 420.265 850.114 424.296C846.067 428.327 843.794 433.794 843.794 439.495Z" fill="#9A1C1C"/>
<path d="M130.338 159.705H141.135V202.836H130.338V159.705Z" stroke="#C50B0B"/>
<path d="M473.343 420.423H512.083V459.016H473.343V420.423Z" stroke="#A70F0F"/>
<path d="M866.128 119.883H876.983V130.697H866.128V119.883Z" stroke="#A70F0F"/>
<path d="M138.945 316.193H146.68V323.898H138.945V316.193Z" fill="#C50B0B"/>
<path d="M504.558 430.159C508.994 430.087 513.372 429.146 517.443 427.39C521.514 425.633 525.197 423.094 528.283 419.919C531.369 416.744 533.797 412.994 535.428 408.884C537.059 404.774 537.862 400.385 537.791 395.966C537.719 391.547 536.775 387.185 535.011 383.13C533.247 379.074 530.699 375.405 527.512 372.331C524.325 369.256 520.561 366.838 516.435 365.212C512.31 363.587 507.903 362.787 503.468 362.859L504.558 430.159Z" fill="#9A1C1C"/>
<path d="M1076.38 293.695C1076.38 296.461 1077.48 299.114 1079.44 301.07C1081.41 303.026 1084.07 304.125 1086.85 304.125C1089.62 304.125 1092.29 303.026 1094.25 301.07C1096.21 299.114 1097.32 296.461 1097.32 293.695C1097.32 290.929 1096.21 288.276 1094.25 286.32C1092.29 284.364 1089.62 283.265 1086.85 283.265C1084.07 283.265 1081.41 284.364 1079.44 286.32C1077.48 288.276 1076.38 290.929 1076.38 293.695Z" stroke="#C50B0B"/>
<path d="M76.8506 24.3193H90.3399V37.7576H76.8506V24.3193Z" stroke="#C50B0B"/>
<path d="M59.8463 349.755H93.8381V362.909H59.8463V349.755Z" stroke="#9A1C1C"/>
<path d="M782.591 446.868C782.591 451.606 784.481 456.151 787.845 459.502C791.208 462.853 795.77 464.735 800.527 464.735C805.284 464.735 809.846 462.853 813.209 459.502C816.573 456.151 818.462 451.606 818.462 446.868C818.462 442.129 816.573 437.584 813.209 434.233C809.846 430.882 805.284 429 800.527 429C795.77 429 791.208 430.882 787.845 434.233C784.481 437.584 782.591 442.129 782.591 446.868Z" stroke="#C50B0B"/>
<path d="M1039.68 269.434H1078.9V300.857H1039.68V269.434Z" stroke="#C50B0B"/>
<path d="M837.32 109.896C841.775 107.088 845.63 103.433 848.667 99.1401C851.703 94.8472 853.862 90.0006 855.018 84.8768C856.174 79.7531 856.306 74.4526 855.407 69.278C854.507 64.1034 852.593 59.156 849.773 54.7184C846.954 50.2807 843.285 46.4397 838.976 43.4146C834.667 40.3895 829.802 38.2396 824.659 37.0876C819.516 35.9355 814.195 35.804 809.001 36.7004C803.806 37.5969 798.84 39.5038 794.386 42.3122L837.32 109.896Z" stroke="#A70F0F"/>
<path d="M693.988 356.173C693.988 358.933 695.088 361.579 697.047 363.53C699.005 365.482 701.662 366.578 704.432 366.578C707.202 366.578 709.858 365.482 711.817 363.53C713.776 361.579 714.876 358.933 714.876 356.173C714.876 353.414 713.776 350.767 711.817 348.816C709.858 346.865 707.202 345.768 704.432 345.768C701.662 345.768 699.005 346.865 697.047 348.816C695.088 350.767 693.988 353.414 693.988 356.173Z" stroke="#9A1C1C"/>
<path d="M522.51 45.1119C522.51 46.2312 522.957 47.3046 523.751 48.0961C524.546 48.8876 525.623 49.3322 526.747 49.3322C527.87 49.3322 528.948 48.8876 529.742 48.0961C530.537 47.3046 530.983 46.2312 530.983 45.1119C530.983 43.9925 530.537 42.9191 529.742 42.1276C528.948 41.3361 527.87 40.8915 526.747 40.8915C525.623 40.8915 524.546 41.3361 523.751 42.1276C522.957 42.9191 522.51 43.9925 522.51 45.1119Z" stroke="#9A1C1C"/>
<path d="M943.029 194.563C941.449 195.646 940.099 197.03 939.056 198.633C938.012 200.237 937.296 202.029 936.949 203.908C936.601 205.787 936.628 207.716 937.028 209.585C937.429 211.454 938.195 213.226 939.283 214.799C940.371 216.373 941.759 217.718 943.369 218.757C944.978 219.797 946.778 220.51 948.664 220.856C950.55 221.203 952.487 221.176 954.362 220.777C956.238 220.378 958.017 219.615 959.597 218.531L943.029 194.563Z" stroke="#A70F0F"/>
<path d="M202.483 93.7839C206.711 96.0588 211.349 97.4803 216.13 97.9667C220.911 98.4532 225.742 97.9951 230.345 96.6187C234.948 95.2423 239.233 92.9747 242.955 89.9457C246.677 86.9167 249.762 83.186 252.035 78.9671C254.307 74.7483 255.721 70.1242 256.197 65.36C256.672 60.5957 256.199 55.7848 254.805 51.2029C253.411 46.6209 251.123 42.358 248.073 38.6584C245.022 34.9587 241.269 31.895 237.028 29.6428L202.483 93.7839Z" fill="#C50B0B"/>
<path d="M178.524 395.502H225.082V441.884H178.524V395.502Z" stroke="#A70F0F"/>
<path d="M48.2612 234.451C48.2612 240.586 50.7077 246.47 55.0623 250.808C59.417 255.147 65.3232 257.584 71.4817 257.584C77.6401 257.584 83.5463 255.147 87.901 250.808C92.2557 246.47 94.7021 240.586 94.7021 234.451C94.7021 228.316 92.2557 222.432 87.901 218.094C83.5463 213.756 77.6401 211.319 71.4817 211.319C65.3232 211.319 59.417 213.756 55.0623 218.094C50.7077 222.432 48.2612 228.316 48.2612 234.451Z" fill="#9A1C1C"/>
<path d="M629.536 73.5846C629.536 78.749 631.595 83.7018 635.261 87.3535C638.926 91.0053 643.898 93.0568 649.082 93.0568C654.266 93.0568 659.237 91.0053 662.903 87.3535C666.569 83.7018 668.628 78.749 668.628 73.5846C668.628 68.4203 666.569 63.4675 662.903 59.8158C659.237 56.164 654.266 54.1125 649.082 54.1125C643.898 54.1125 638.926 56.164 635.261 59.8158C631.595 63.4675 629.536 68.4203 629.536 73.5846Z" stroke="#A70F0F"/>
<path d="M1131 282.869C1131 291.586 1134.48 299.946 1140.66 306.11C1146.85 312.274 1155.24 315.737 1163.99 315.737C1172.74 315.737 1181.14 312.274 1187.32 306.11C1193.51 299.946 1196.99 291.586 1196.99 282.869C1196.99 274.151 1193.51 265.791 1187.32 259.627C1181.14 253.463 1172.74 250 1163.99 250C1155.24 250 1146.85 253.463 1140.66 259.627C1134.48 265.791 1131 274.151 1131 282.869Z" fill="#A70F0F"/>
</g>
</g>
<defs>
<clipPath id="clip0_75_3">
<rect width="1204" height="468" fill="white"/>
</clipPath>
</defs>
</svg>
